PathFileType	4	(X/Y/Z)	E:\Qualisys_Data\Carbon_Farble_Plate\Data\Amateur_Runner\S1\T3\S1T3V11_c3d.trc
DataRate	CameraRate	NumFrames	NumMarkers	Units	OrigDataRate	OrigDataStartFrame	OrigNumFrames
200.000000	200.000000	4	39	mm	200.000000	116	311
Frame#	Time	LSHO			RSHO			LICST			RICST			LASIS			LHEEL			RASIS			LTROC			RTROC			SACR			LTH1			LSK4			LTH2			LTH3			RHM5			LSK2			LTH4			RTH1			LTOE			RTH2			RTH3			RTH4			LLEP			RLEP			LSK1			LSK3			RSK1			LHM5			RSK2			LFT1			RSK3			RSK4			LLME			RLME			RTOE			RHEEL			RFT1			RFT2			LFT2			
		X1	Y1	Z1	X2	Y2	Z2	X3	Y3	Z3	X4	Y4	Z4	X5	Y5	Z5	X6	Y6	Z6	X7	Y7	Z7	X8	Y8	Z8	X9	Y9	Z9	X10	Y10	Z10	X11	Y11	Z11	X12	Y12	Z12	X13	Y13	Z13	X14	Y14	Z14	X15	Y15	Z15	X16	Y16	Z16	X17	Y17	Z17	X18	Y18	Z18	X19	Y19	Z19	X20	Y20	Z20	X21	Y21	Z21	X22	Y22	Z22	X23	Y23	Z23	X24	Y24	Z24	X25	Y25	Z25	X26	Y26	Z26	X27	Y27	Z27	X28	Y28	Z28	X29	Y29	Z29	X30	Y30	Z30	X31	Y31	Z31	X32	Y32	Z32	X33	Y33	Z33	X34	Y34	Z34	X35	Y35	Z35	X36	Y36	Z36	X37	Y37	Z37	X38	Y38	Z38	X39	Y39	Z39	

117	0.58	-586.5496826171875	1457.150268554688	-559.01025390625	-624.8802490234375	1471.579223632812	-228.1547546386719	-662.474609375	1008.342224121094	-516.0990600585938	-660.0294799804688	1029.023071289062	-213.9735565185547	-618.533447265625	968.679443359375	-489.8041687011719	-1027.410766601562	136.8797912597656	-398.3636779785156	-622.1279907226562	980.9871215820312	-223.8268585205078	-734.8846435546875	891.9899291992188	-528.3250122070312	-720.101806640625	888.7169189453125	-187.4121398925781	-779.6668701171875	1037.2919921875	-359.322265625	-613.537353515625	730.4782104492188	-498.1174926757812	-919.51123046875	275.150390625	-432.9610595703125	-693.9816284179688	727.7905883789062	-528.1116943359375	-620.1427612304688	627.98876953125	-480.5139465332031	-698.6490478515625	159.205322265625	-200.3590698242188	-854.9512939453125	346.2461547851562	-472.945068359375	-704.1336059570312	630.955078125	-500.9199829101562	-548.2000122070312	821.5686645507812	-206.9061431884766	-789.3934326171875	59.56834411621094	-400.8910827636719	-612.2953491210938	780.3863525390625	-179.9735565185547	-493.1525268554688	735.4931640625	-206.5092315673828	-561.3248901367188	694.1488647460938	-188.4214019775391	-689.1670532226562	479.7262268066406	-460.4800109863281	-463.2852172851562	561.3668212890625	-222.9779357910156	-792.9715576171875	293.1086120605469	-454.3973083496094	-862.8538818359375	220.0396575927734	-447.2905578613281	-583.3562622070312	426.5274353027344	-209.8960266113281	-861.6784057617188	63.48793411254883	-465.0744934082031	-639.1680297851562	483.3575744628906	-231.3475189208984	-1027.420654296875	105.6401138305664	-369.6534729003906	-651.720458984375	353.2241516113281	-220.1533203125	-704.9083862304688	408.2103271484375	-250.4327087402344	-958.4442749023438	151.9197387695312	-443.9906005859375	-765.7184448242188	286.8629760742188	-224.4728698730469	-643.887451171875	132.3331451416016	-266.7765808105469	-840.4436645507812	289.017578125	-274.6661987304688	-844.1782836914062	260.2753295898438	-303.7560119628906	-855.72021484375	268.6515502929688	-252.4383697509766	-1032.335205078125	104.5473556518555	-421.3684692382812
118	0.585	-568.3861694335938	1461.635498046875	-557.655029296875	-610.2913818359375	1475.482543945312	-227.6047515869141	-644.4417114257812	1010.394714355469	-516.5123291015625	-642.2869262695312	1033.400756835938	-214.4319763183594	-601.2671508789062	971.1260986328124	-490.5025024414062	-1023.357543945312	143.2748413085938	-399.2052917480469	-604.718994140625	985.4398193359376	-223.9329986572266	-718.4270629882812	895.0543823242188	-527.5811157226562	-701.8009033203125	893.560791015625	-186.0640563964844	-761.7474365234375	1041.432861328125	-359.5316162109375	-600.0858154296875	732.4942626953125	-497.4394836425781	-913.7927856445312	280.8380432128906	-433.1365966796875	-680.6239013671875	731.0570678710938	-526.7196044921875	-607.9024047851562	630.1117553710938	-479.5533447265625	-662.2284545898438	155.1925964355469	-200.5564880371094	-848.8887329101562	351.2821350097656	-473.0953979492188	-692.2327880859375	634.1094360351562	-500.2646789550781	-530.0411987304688	828.0343627929688	-208.5281524658203	-789.19287109375	60.04588317871094	-400.9863586425781	-593.3650512695312	785.9664916992188	-179.4531707763672	-473.8663024902344	742.1353759765625	-206.9024353027344	-541.572021484375	700.3123779296875	-188.2594604492188	-680.8543701171875	483.239013671875	-459.5925903320312	-443.3705139160156	567.472412109375	-223.3410034179688	-787.2207641601562	297.5810546875	-454.7781372070312	-857.6349487304688	225.0178070068359	-448.1522216796875	-558.4021606445312	427.0993041992188	-209.5724182128906	-860.212890625	64.4329605102539	-465.4026184082031	-616.4202880859375	481.7958068847656	-230.5736083984375	-1023.914794921875	112.5842590332031	-370.7278137207031	-623.4227905273438	351.3701477050781	-220.8319854736328	-679.0377197265625	404.455810546875	-249.7017211914062	-953.864013671875	156.5161590576172	-444.5607299804688	-734.5946655273438	280.5894165039062	-224.2344665527344	-606.388671875	131.1590728759766	-267.0140686035156	-809.6192016601562	279.60498046875	-274.1027221679688	-812.260009765625	250.6609954833984	-303.5356750488281	-823.4426879882812	258.476806640625	-251.3276062011719	-1028.97607421875	111.0054321289062	-421.6653747558594
119	0.59	-550.3828125	1466.16845703125	-556.4690551757812	-595.6798095703125	1479.287353515625	-226.8432006835938	-626.3456420898438	1013.3798828125	-515.7816162109375	-624.7225341796875	1038.2421875	-214.3586883544922	-583.4262084960938	974.0834350585938	-488.7771606445312	-1019.050598144531	149.6024627685547	-400.1210327148438	-587.1052856445312	990.0015258789062	-223.8050994873047	-701.185546875	898.4440307617188	-527.0619506835938	-683.709228515625	898.2742309570312	-185.1995391845703	-743.890625	1044.496826171875	-359.2563171386719	-586.7681884765625	734.1651000976562	-496.1945190429688	-907.7490844726562	286.3808898925781	-433.6461486816406	-667.34521484375	734.2616577148438	-526.2589111328125	-597.467041015625	631.91796875	-477.4378356933594	-625.545654296875	151.8239440917969	-200.4129943847656	-842.0604248046875	356.7659606933594	-473.5829772949219	-680.8541259765625	637.9591064453125	-499.244140625	-511.9550476074219	833.9263916015625	-208.4430236816406	-788.4000854492188	59.97678756713867	-401.0466613769531	-574.4108276367188	791.5933227539062	-179.0804595947266	-455.2588806152344	749.16455078125	-208.45947265625	-522.4654541015625	706.25927734375	-187.9907684326172	-672.0618286132812	486.2948608398438	-458.778564453125	-423.4323120117188	573.3435668945312	-223.2342071533203	-780.99169921875	302.1414794921875	-454.953369140625	-852.2337036132812	230.2809753417969	-448.754150390625	-532.7517700195312	427.7355041503906	-208.7441711425781	-858.7205200195312	65.6418228149414	-465.8127136230469	-593.5625610351562	480.1166381835938	-229.7579956054688	-1020.4658203125	118.9366989135742	-371.1858825683594	-595.1692504882812	349.7496337890625	-220.4250335693359	-653.0108642578125	400.2870788574219	-249.3880004882812	-949.1466064453124	162.7760772705078	-445.7603149414062	-703.345703125	274.0227355957031	-223.6608428955078	-568.8622436523438	129.7644348144531	-267.6707153320312	-778.5919799804688	269.3556823730469	-273.9185180664062	-781.0582885742188	240.9384765625	-303.007568359375	-791.135986328125	248.2712554931641	-250.8339080810547	-1025.668212890625	117.5414733886719	-422.1190795898438
120	0.595	-532.565185546875	1471.145263671875	-555.1576538085938	-580.9955444335938	1483.056884765625	-226.3914489746094	-608.440673828125	1015.961364746094	-515.2618408203125	-607.6182250976562	1042.86962890625	-214.4380950927734	-565.3556518554688	976.729736328125	-488.371337890625	-1015.008972167969	155.6400146484375	-400.8593444824219	-569.7227172851562	994.5802612304688	-223.7950592041016	-684.131591796875	901.7592163085938	-526.0606689453125	-665.2666015625	902.8566284179688	-184.3077087402344	-725.9387817382812	1048.692749023438	-359.4392700195312	-573.0490112304688	735.9740600585938	-495.0854797363281	-901.4214477539062	292.548828125	-434.19873046875	-653.3179931640625	737.6713256835938	-525.3677368164062	-585.4302978515625	634.255859375	-476.3038330078125	-589.1283569335938	148.5770416259766	-200.3172302246094	-834.9096069335938	362.0864868164062	-473.9877014160156	-668.7127075195312	641.310791015625	-498.1826782226562	-494.0570068359375	839.862548828125	-209.5797119140625	-786.1851806640625	60.58143615722656	-401.7270202636719	-555.8888549804688	797.0753173828125	-178.9814453125	-436.5191650390625	755.4404907226562	-208.7953643798828	-503.2282409667969	711.9178466796875	-188.0379180908203	-662.7953491210938	490.2385864257812	-457.7605285644531	-404.0631408691406	578.9928588867188	-223.2296752929688	-775.6402587890625	305.8945922851562	-455.1465148925781	-846.1072998046875	235.7646789550781	-450.0149841308594	-508.0538635253906	428.0325927734375	-208.3193206787109	-857.4284057617188	66.13734436035156	-465.8216552734375	-571.1346435546875	477.9815673828125	-229.159423828125	-1016.909362792969	125.1963500976562	-371.7224426269531	-567.1285400390625	347.4244689941406	-220.2800140380859	-627.0087890625	395.8648376464844	-248.7741241455078	-944.2439575195312	168.6649627685547	-446.6314086914062	-671.7088623046875	266.9981689453125	-223.5021820068359	-532.3177490234375	128.8724975585938	-267.2337646484375	-746.6083374023438	259.7755737304688	-273.1771545410156	-747.6284790039062	231.1793518066406	-303.5766906738281	-758.8116455078125	237.93994140625	-249.9882507324219	-1022.328857421875	123.2080154418945	-422.8631896972656
